<?xml version="1.0" encoding="UTF-8"?>
<svg id="Layer_1" xmlns="http://www.w3.org/2000/svg" version="1.1" viewBox="0 0 225.197 74.187">
  <polygon points="8.589 40.041 14.921 40.041 6.395 73.832 0 73.832 8.589 40.041" fill="#fff"/>
  <polygon points="23.326 68.074 16.994 68.074 18.369 73.832 24.763 73.832 23.326 68.074" fill="#fff"/>
  <polygon points="120.023 .354 126.355 .354 117.829 34.145 111.434 34.145 120.023 .354" fill="#fff"/>
  <polygon points="134.761 28.388 128.429 28.388 129.803 34.145 136.198 34.145 134.761 28.388" fill="#fff"/>
  <g>
    <polygon points="51.732 39.341 51.732 73.811 45.442 73.811 35.692 51.291 35.692 73.811 29.962 73.811 29.962 39.341 36.182 39.341 45.982 62.561 45.982 39.341 51.732 39.341" fill="#fff"/>
    <path d="M69.312,54.878h10.247v8.54c0,2.214-.432,4.127-1.295,5.74s-2.073,2.854-3.628,3.724c-1.555.87-3.408,1.305-5.56,1.305-2.167,0-4.048-.419-5.642-1.257-1.594-.838-2.823-2.024-3.687-3.559-.864-1.533-1.296-3.352-1.296-5.455v-14.043c0-2.245.428-4.179,1.284-5.8.855-1.621,2.068-2.874,3.64-3.76,1.57-.886,3.423-1.328,5.56-1.328,2.104,0,3.895.399,5.371,1.197,1.476.799,2.634,1.997,3.475,3.594.84,1.598,1.339,3.59,1.496,5.978h-6.432c-.126-1.502-.53-2.612-1.213-3.332-.684-.72-1.583-1.08-2.697-1.08-1.257,0-2.262.412-3.016,1.233-.754.823-1.131,1.922-1.131,3.298v14.043c0,1.186.389,2.135,1.166,2.846.777.712,1.818,1.068,3.122,1.068s2.34-.38,3.11-1.139c.769-.76,1.154-1.827,1.154-3.203v-2.656h-4.028v-5.954Z" fill="#fff"/>
    <polygon points="106.542 39.341 106.542 73.831 100.412 73.831 100.412 59.721 91.932 59.721 91.932 73.831 85.812 73.831 85.812 39.341 91.932 39.341 91.932 53.861 100.412 53.861 100.412 39.341 106.542 39.341" fill="#fff"/>
    <polygon points="119.762 45.341 119.762 53.711 130.812 53.711 130.812 59.671 119.762 59.671 119.762 67.831 132.692 67.831 132.692 73.831 113.632 73.831 113.632 39.341 132.692 39.341 132.692 45.341 119.762 45.341" fill="#fff"/>
    <polygon points="157.192 67.881 157.192 73.831 138.372 73.831 138.372 39.341 144.502 39.341 144.502 67.881 157.192 67.881" fill="#fff"/>
    <path d="M171.618,74.187c-2.167,0-4.048-.419-5.642-1.257s-2.823-2.04-3.687-3.605c-.863-1.565-1.295-3.408-1.295-5.527v-14.422c0-2.135.432-3.981,1.295-5.539.864-1.558,2.093-2.756,3.687-3.594s3.475-1.257,5.642-1.257,4.048.419,5.642,1.257,2.823,2.036,3.687,3.594c.863,1.558,1.296,3.404,1.296,5.539v14.422c0,2.119-.433,3.962-1.296,5.527-.864,1.565-2.093,2.768-3.687,3.605s-3.475,1.257-5.642,1.257ZM171.618,67.996c1.335,0,2.391-.407,3.169-1.222.777-.814,1.166-1.918,1.166-3.31v-13.782c0-1.391-.389-2.494-1.166-3.309-.778-.814-1.834-1.222-3.169-1.222-1.319,0-2.372.407-3.157,1.222-.786.814-1.178,1.918-1.178,3.309v13.782c0,1.392.392,2.495,1.178,3.31.785.814,1.837,1.222,3.157,1.222Z" fill="#fff"/>
    <polygon points="210.282 39.341 210.282 73.811 203.992 73.811 194.242 51.291 194.242 73.811 188.512 73.811 188.512 39.341 194.732 39.341 204.532 62.581 204.532 39.341 210.282 39.341" fill="#fff"/>
    <path d="M223.149,39.341v34.49h-6.243v-34.49h6.243Z" fill="#fff"/>
  </g>
  <g>
    <path d="M74.324,35.201c-2.167,0-4.021-.423-5.56-1.269-1.54-.846-2.717-2.076-3.534-3.688-.816-1.613-1.225-3.566-1.225-5.859v-13.545c0-2.309.408-4.27,1.225-5.883.816-1.612,1.994-2.842,3.534-3.688,1.539-.846,3.392-1.269,5.56-1.269,2.136,0,3.938.423,5.407,1.269,1.468.847,2.603,2.144,3.404,3.891.801,1.747,1.279,3.941,1.437,6.582h-6.313c-.094-1.249-.303-2.28-.624-3.096-.322-.813-.758-1.419-1.308-1.814-.55-.395-1.217-.593-2.002-.593-1.241,0-2.218.399-2.933,1.198-.715.798-1.071,1.933-1.071,3.403v13.545c0,1.455.356,2.582,1.071,3.38.715.799,1.692,1.198,2.933,1.198,1.178,0,2.093-.451,2.745-1.353.651-.901,1.048-2.284,1.189-4.15h6.313c-.173,2.641-.659,4.835-1.46,6.582-.801,1.748-1.932,3.045-3.392,3.891-1.461.846-3.259,1.269-5.395,1.269Z" fill="#fff"/>
    <polygon points="108.932 28.891 108.932 34.841 90.112 34.841 90.112 .351 96.242 .351 96.242 28.891 108.932 28.891" fill="#fff"/>
    <path d="M148.998,35.201c-3.267,0-5.803-.94-7.609-2.822s-2.709-4.531-2.709-7.946V.355h6.148v24.243c0,1.407.361,2.502,1.083,3.285.723.782,1.751,1.174,3.086,1.174s2.371-.392,3.11-1.174c.737-.783,1.107-1.878,1.107-3.285V.355h6.148v24.077c0,3.415-.911,6.064-2.733,7.946-1.822,1.882-4.366,2.822-7.632,2.822Z" fill="#fff"/>
    <path d="M183.492,2.991c-1.85-1.76-4.48-2.64-7.87-2.64h-10.06v34.49h10.04c2.34,0,4.3-.41,5.87-1.23,1.58-.82,2.78-1.98,3.59-3.49.8-1.5,1.21-3.27,1.21-5.31v-14.42c0-3.18-.93-5.65-2.78-7.4ZM179.982,24.551c0,1.36-.4,2.42-1.19,3.19-.79.77-1.92,1.15-3.38,1.15h-3.72V6.311h3.72c1.46,0,2.59.38,3.38,1.14.79.76,1.19,1.82,1.19,3.2v13.9Z" fill="#fff"/>
    <path d="M198.314.355v34.49h-6.243V.355h6.243Z" fill="#fff"/>
    <path d="M214.832,35.201c-3.267,0-5.803-.94-7.609-2.822-1.806-1.882-2.709-4.531-2.709-7.946V.355h6.148v24.243c0,1.407.361,2.502,1.084,3.285.722.782,1.751,1.174,3.086,1.174s2.371-.392,3.11-1.174c.738-.783,1.107-1.878,1.107-3.285V.355h6.148v24.077c0,3.415-.911,6.064-2.732,7.946-1.822,1.882-4.366,2.822-7.633,2.822Z" fill="#fff"/>
  </g>
</svg>
